HIERARCHY
ROOT Hips
{
	OFFSET 0.000000 0.000000 0.000000 
	CHANNELS 6 Xposition Yposition Zposition Yrotation Zrotation Xrotation 
	JOINT Lumbar
	{
		OFFSET 0.000000 0.000000 0.000000 
		CHANNELS 3 Zrotation Xrotation Yrotation
		JOINT Neck
		{
			OFFSET 0.000000 0.445665 0.000000 
			CHANNELS 3 Zrotation Xrotation Yrotation
			End Site
			{
				OFFSET 0.000000 0.227535 0.000000 
			}
		}
		JOINT RightShoulder
		{
			OFFSET 0.019635 0.377685 0.194865 
			CHANNELS 3 Zrotation Xrotation Yrotation
			JOINT RightElbow
			{
				OFFSET 0.000000 -0.243375 0.000000 
				CHANNELS 2 Zrotation Yrotation
				JOINT RightWrist
				{
					OFFSET 0.000000 -0.264825 0.000000 
					CHANNELS 2 Zrotation Xrotation
					End Site
					{
						OFFSET 0.006600 -0.176220 0.000990 
					}
				}
			}
		}
		JOINT LeftShoulder
		{
			OFFSET 0.019635 0.377685 -0.194865 
			CHANNELS 3 Zrotation Xrotation Yrotation
			JOINT LeftElbow
			{
				OFFSET 0.000000 -0.243375 0.000000 
				CHANNELS 2 Zrotation Yrotation
				JOINT LeftWrist
				{
					OFFSET 0.000000 -0.264825 0.000000 
					CHANNELS 2 Zrotation Xrotation
					End Site
					{
						OFFSET 0.006600 -0.176220 -0.000990 
					}
				}
			}
		}
	}
	JOINT RightHip
	{
		OFFSET 0.052140 -0.069960 0.075570 
		CHANNELS 3 Zrotation Xrotation Yrotation
		JOINT RightKnee
		{
			OFFSET 0.000000 -0.402270 0.000000 
			CHANNELS 1 Zrotation
			JOINT RightAnkle
			{
				OFFSET 0.000000 -0.404085 0.000000 
				CHANNELS 3 Zrotation Xrotation Yrotation
				End Site
				{
					OFFSET 0.204105 -0.089430 0.008415 
				}
			}
		}
	}
	JOINT LeftHip
	{
		OFFSET 0.052140 -0.069960 -0.075570 
		CHANNELS 3 Zrotation Xrotation Yrotation
		JOINT LeftKnee
		{
			OFFSET 0.000000 -0.402270 0.000000 
			CHANNELS 1 Zrotation
			JOINT LeftAnkle
			{
				OFFSET 0.000000 -0.404085 0.000000 
				CHANNELS 3 Zrotation Xrotation Yrotation
				End Site
				{
					OFFSET 0.204105 -0.089430 -0.008415 
				}
			}
		}
	}
}
MOTION
Frames: 29
Frame Time: 0.02
0 0.95578 0 182.76687 0 -2.86364 0.74451 2.26403 -6.70251 -35.94214 4.78633 5.30632 -1.86992 -72.61353 -71.41396 20.82968 76.61861 -16.89743 -1.88917 1.94152 59.89259 68.70732 23.10475 -72.31507 -28.37892 1.98196 -3.1431 1.41236 3.92305 -6.01262 -2.79932 -2.62918 -6.01103 -0.84254 4.5174 -0.8727 -7.58253 3.94754 1.65634 0.47254
-0.00015 0.95577 -1e-05 182.76658 0 -2.86286 0.75508 2.26165 -6.6929 -35.96564 4.78079 5.31146 -1.82399 -72.60825 -71.39623 20.83184 76.59386 -16.92734 -1.87646 1.95134 59.89706 68.64058 23.11206 -72.23967 -28.38093 1.99828 -3.15909 1.4117 3.91673 -5.99889 -2.796 -2.62714 -6.00218 -0.85615 4.51812 -0.86387 -7.57333 3.94936 1.65683 0.46724
-0.0003 0.95576 -1e-05 182.76629 0 -2.86208 0.76556 2.2593 -6.68334 -35.98891 4.77523 5.31655 -1.77826 -72.60289 -71.37844 20.83398 76.56941 -16.95689 -1.86389 1.96116 59.90151 68.57425 23.11929 -72.16481 -28.38277 2.01451 -3.17496 1.41104 3.91049 -5.98531 -2.79265 -2.62512 -5.99343 -0.86963 4.51883 -0.85518 -7.56428 3.95122 1.65734 0.46203
-0.00045 0.95575 -2e-05 182.766 0 -2.86132 0.77581 2.25704 -6.67388 -36.01151 4.76956 5.32147 -1.73262 -72.59724 -71.36013 20.83612 76.54582 -16.98522 -1.85178 1.97115 59.90596 68.50904 23.12632 -72.09083 -28.38393 2.03078 -3.1905 1.41045 3.90483 -5.97215 -2.78926 -2.62316 -5.98536 -0.88273 4.51948 -0.84707 -7.5558 3.95324 1.65792 0.45719
-0.00061 0.95574 -3e-05 182.76568 0 -2.86049 0.78727 2.2543 -6.66386 -36.03771 4.76449 5.32726 -1.68616 -72.59318 -71.34446 20.83833 76.51756 -17.01988 -1.83725 1.98032 59.91046 68.43806 23.13447 -72.01153 -28.38866 2.04712 -3.20777 1.4096 3.89648 -5.95672 -2.78619 -2.62087 -5.97411 -0.89782 4.52041 -0.83599 -7.54437 3.95439 1.65814 0.45043
-0.00075 0.95573 -3e-05 182.76543 0 -2.85979 0.79616 2.25257 -6.65504 -36.05622 4.75815 5.33123 -1.6417 -72.58574 -71.32333 20.84033 76.4993 -17.0412 -1.82783 1.99115 59.91479 68.37921 23.14023 -71.94403 -28.38588 2.06309 -3.22137 1.40924 3.89356 -5.94615 -2.78238 -2.61925 -5.96931 -0.90873 4.52075 -0.83113 -7.53915 3.95739 1.65911 0.44771
-0.00084 0.95573 -4e-05 182.76534 0 -2.85953 0.79816 2.25388 -6.64953 -36.05369 4.74789 5.32989 -1.59988 -72.56867 -71.28483 20.84237 76.50846 -17.02428 -1.83299 2.00765 59.91919 68.35471 23.13919 -71.9044 -28.36101 2.08037 -3.22486 1.41065 3.9086 -5.94878 -2.77688 -2.61974 -5.98535 -0.90766 4.51956 -0.84439 -7.55199 3.96567 1.66231 0.45682
-0.0009 0.95572 -4e-05 182.76532 0 -2.85937 0.79755 2.25616 -6.64524 -36.04337 4.73641 5.32676 -1.56052 -72.54823 -71.24118 20.84411 76.52773 -16.99411 -1.84325 2.02564 59.92329 68.34233 23.13575 -71.87744 -28.32876 2.09692 -3.22467 1.41249 3.92869 -5.95633 -2.77057 -2.62085 -6.00744 -0.90245 4.51775 -0.86376 -7.57095 3.9758 1.66625 0.46991
-0.00097 0.95571 -4e-05 182.76528 0 -2.85908 0.79802 2.25783 -6.64041 -36.03647 4.72573 5.32463 -1.52187 -72.52948 -71.20137 20.84559 76.54259 -16.9709 -1.85089 2.0423 59.9272 68.32373 23.13353 -71.84776 -28.30077 2.11228 -3.22611 1.41385 3.94449 -5.96185 -2.76435 -2.62148 -6.02473 -0.89943 4.51616 -0.8797 -7.58657 3.98501 1.66976 0.48074
-0.00104 0.9557 -4e-05 182.76517 0 -2.85913 0.7989 2.26022 -6.6355 -36.03001 4.71396 5.32172 -1.4756 -72.51003 -71.15534 20.8487 76.55686 -16.94376 -1.85978 2.06174 59.93259 68.30789 23.13084 -71.80549 -28.26906 2.1339 -3.22764 1.41636 3.9684 -5.96668 -2.75924 -2.6229 -6.05037 -0.89511 4.51484 -0.89833 -7.60459 3.99459 1.67369 0.49344
-0.00111 0.95569 -3e-05 182.76524 0 -2.85853 0.79834 2.26134 -6.63107 -36.02088 4.70422 5.31999 -1.44566 -72.4913 -71.12088 20.84838 76.57454 -16.92161 -1.86731 2.0757 59.93471 68.28949 23.12847 -71.79217 -28.24322 2.1425 -3.22821 1.41662 3.97697 -5.97391 -2.75172 -2.62289 -6.06044 -0.89253 4.51282 -0.91287 -7.61899 4.00379 1.67692 0.50323
-0.00118 0.95568 -0 182.76568 0 -2.85594 0.79435 2.25866 -6.6274 -36.00543 4.69998 5.32207 -1.4615 -72.47475 -71.12113 20.83822 76.60095 -16.91705 -1.86959 2.07463 59.92874 68.25844 23.12824 -71.85814 -28.23649 2.11356 -3.22614 1.41018 3.9388 -5.98821 -2.73679 -2.61824 -6.02263 -0.8954 4.50885 -0.91404 -7.62245 4.01184 1.67798 0.50369
-0.00126 0.95566 4e-05 182.76629 0 -2.85274 0.78903 2.25468 -6.62422 -35.9877 4.69787 5.32536 -1.49349 -72.45915 -71.13295 20.82469 76.63011 -16.91789 -1.87038 2.06789 59.91934 68.22488 23.12832 -71.95238 -28.23575 2.07188 -3.22338 1.40152 3.88557 -6.00447 -2.71963 -2.61224 -5.96952 -0.90022 4.50421 -0.91098 -7.62197 4.01939 1.67834 0.50114
-0.00134 0.95565 8e-05 182.76688 0 -2.84996 0.78439 2.25135 -6.62102 -35.97156 4.69503 5.32799 -1.51718 -72.44352 -71.13844 20.81298 76.65677 -16.9159 -1.87205 2.06346 59.91092 68.1942 23.12778 -72.032 -28.23155 2.03716 -3.22155 1.39414 3.84136 -6.01871 -2.70415 -2.60723 -5.92572 -0.90441 4.49997 -0.91026 -7.62287 4.02695 1.67906 0.50017
-0.00141 0.95563 0.00012 182.76728 0 -2.84662 0.77934 2.24782 -6.61703 -35.95283 4.69119 5.331 -1.54485 -72.42607 -71.14817 20.80003 76.68896 -16.91498 -1.87305 2.06025 59.9049 68.15664 23.12904 -72.11935 -28.23013 1.9974 -3.21708 1.38565 3.78827 -6.03777 -2.68589 -2.60066 -5.87241 -0.90743 4.4953 -0.90806 -7.62559 4.03546 1.67962 0.49847
-0.00149 0.95562 0.00016 182.76808 0 -2.84427 0.77485 2.24437 -6.61474 -35.93902 4.68993 5.33356 -1.56824 -72.41268 -71.15204 20.78887 76.7103 -16.91333 -1.87499 2.05309 59.8931 68.13259 23.12684 -72.19739 -28.22451 1.96521 -3.21789 1.37892 3.74984 -6.04735 -2.67283 -2.59697 -5.83492 -0.91331 4.49136 -0.90776 -7.62367 4.0419 1.68033 0.49752
-0.00161 0.95561 0.00022 182.77037 0 -2.84487 0.77245 2.24155 -6.61739 -35.93972 4.69549 5.33432 -1.57412 -72.41036 -71.13544 20.7838 76.69993 -16.90814 -1.88027 2.03693 59.86579 68.147 23.11344 -72.24114 -28.20514 1.95628 -3.23435 1.37773 3.75747 -6.02905 -2.67521 -2.60211 -5.84709 -0.92741 4.48964 -0.91453 -7.60848 4.04233 1.68169 0.49942
-0.00173 0.95561 0.00027 182.77301 0 -2.84648 0.77064 2.23883 -6.62163 -35.94542 4.70355 5.33462 -1.57541 -72.41205 -71.11281 20.78072 76.67879 -16.90214 -1.88646 2.01686 59.83279 68.17495 23.09697 -72.27502 -28.18142 1.9555 -3.25601 1.37834 3.78006 -6.00136 -2.68281 -2.6101 -5.87532 -0.9442 4.48864 -0.92318 -7.58899 4.04076 1.68323 0.50216
-0.00185 0.95561 0.00033 182.77522 0 -2.8476 0.76843 2.23599 -6.62487 -35.94863 4.71032 5.33535 -1.58004 -72.41191 -71.09397 20.77638 76.66314 -16.89668 -1.89194 1.99829 59.80272 68.19631 23.0828 -72.31414 -28.16028 1.95156 -3.27474 1.37801 3.79447 -5.97877 -2.68769 -2.61643 -5.89464 -0.95925 4.48729 -0.93039 -7.57237 4.04038 1.68467 0.50447
-0.00197 0.9556 0.00038 182.77853 0 -2.84884 0.76673 2.23343 -6.62934 -35.95269 4.71782 5.3353 -1.58018 -72.41202 -71.07125 20.77292 76.64475 -16.89061 -1.89858 1.98084 59.77132 68.21943 23.0643 -72.35012 -28.13715 1.94509 -3.29583 1.37811 3.81395 -5.95274 -2.69397 -2.62424 -5.92 -0.97652 4.48607 -0.93987 -7.55177 4.03882 1.68617 0.50686
-0.00209 0.9556 0.00044 182.77967 0 -2.85004 0.76412 2.23033 -6.63161 -35.95616 4.72438 5.33662 -1.58808 -72.41233 -71.05482 20.76878 76.62987 -16.88564 -1.9031 1.96005 59.74107 68.24214 23.05473 -72.39111 -28.11659 1.94571 -3.31326 1.37777 3.82689 -5.93163 -2.6986 -2.62968 -5.93709 -0.9898 4.48469 -0.9452 -7.53844 4.03921 1.6876 0.50936
-0.00216 0.95559 0.00048 182.77429 0 -2.85115 0.75875 2.22584 -6.62763 -35.95704 4.72743 5.34275 -1.62043 -72.41364 -71.05847 20.75787 76.62402 -16.88299 -1.90103 1.93182 59.71772 68.25991 23.06634 -72.43812 -28.10836 1.96643 -3.31923 1.37597 3.81575 -5.92622 -2.69743 -2.62776 -5.92484 -0.99117 4.48305 -0.93823 -7.54681 4.04586 1.68883 0.51181
-0.00222 0.95559 0.00052 182.76675 0 -2.85214 0.7524 2.22081 -6.62142 -35.95694 4.72951 5.35003 -1.65996 -72.41451 -71.06795 20.74773 76.62265 -16.88153 -1.89693 1.89983 59.69495 68.27677 23.08867 -72.49239 -28.10225 1.99368 -3.32134 1.37363 3.79797 -5.9261 -2.69442 -2.62339 -5.90419 -0.98843 4.48111 -0.92717 -7.56262 4.05448 1.69002 0.51444
-0.00229 0.95559 0.00057 182.7605 0 -2.85301 0.74665 2.21594 -6.61603 -35.95742 4.73222 5.35623 -1.6953 -72.41495 -71.07439 20.7393 76.62145 -16.88025 -1.89412 1.86959 59.67089 68.29456 23.10777 -72.54973 -28.09216 2.01622 -3.32531 1.37144 3.7849 -5.92362 -2.69227 -2.62025 -5.88924 -0.98777 4.47908 -0.91824 -7.57456 4.06193 1.69118 0.51702
-0.00236 0.95558 0.00061 182.75306 0 -2.85465 0.74056 2.21141 -6.61128 -35.95834 4.73419 5.365 -1.73583 -72.41915 -71.08396 20.71947 76.61075 -16.87632 -1.88973 1.84078 59.65249 68.31121 23.11634 -72.57934 -28.09387 2.04598 -3.32913 1.36977 3.76536 -5.92057 -2.69024 -2.61673 -5.8672 -0.98646 4.47811 -0.9081 -7.58809 4.07043 1.69242 0.51925
-0.00243 0.95558 0.00066 182.74746 0 -2.85464 0.73456 2.2061 -6.60495 -35.957 4.73748 5.36842 -1.76552 -72.41414 -71.08636 20.72702 76.6208 -16.87769 -1.88817 1.80595 59.62062 68.32913 23.15382 -72.66918 -28.07254 2.06263 -3.33215 1.36678 3.75731 -5.92018 -2.68742 -2.61338 -5.85734 -0.98528 4.47475 -0.89965 -7.60052 4.0773 1.69363 0.52254
-0.00251 0.95558 0.00071 182.74819 0 -2.85013 0.73225 2.19818 -6.59188 -35.95862 4.74412 5.35916 -1.77879 -72.39362 -71.08393 20.78122 76.69017 -16.89767 -1.89485 1.77506 59.56688 68.35493 23.23229 -72.91841 -27.97842 2.03729 -3.33478 1.36102 3.78467 -5.92509 -2.6831 -2.61089 -5.88651 -0.98732 4.46572 -0.89518 -7.60483 4.07858 1.69371 0.52617
-0.00258 0.95558 0.00078 182.75059 0 -2.84395 0.72948 2.1896 -6.57772 -35.9563 4.75218 5.34411 -1.77792 -72.36157 -71.0698 20.86908 76.78051 -16.92219 -1.90464 1.73515 59.4962 68.37986 23.3471 -73.229 -27.86251 1.99926 -3.33651 1.35375 3.82348 -5.93267 -2.67798 -2.60866 -5.92753 -0.98931 4.45408 -0.89278 -7.60837 4.07828 1.69399 0.53136
-0.00266 0.95559 0.00085 182.75187 0 -2.83853 0.72482 2.18174 -6.56606 -35.94985 4.76 5.33001 -1.77375 -72.32889 -71.05188 20.95938 76.85824 -16.94174 -1.91279 1.68579 59.42385 68.40413 23.46801 -73.51493 -27.76251 1.9697 -3.33805 1.34671 3.85549 -5.93956 -2.67306 -2.60642 -5.96085 -0.99002 4.44311 -0.89063 -7.61445 4.07911 1.69488 0.53743
